<svg xmlns="http://www.w3.org/2000/svg" viewBox="0 0 50 50"><g fill="#3C3C3C"><path d="M25 0C11.2 0 0 11.2 0 25s11.2 25 25 25 25-11.2 25-25S38.8 0 25 0zm0 48.1C12.3 48.1 1.9 37.7 1.9 25 1.9 12.3 12.3 1.9 25 1.9c12.7 0 23.1 10.4 23.1 23.1 0 12.7-10.4 23.1-23.1 23.1zm0 0"/><path d="M34.3 15.7c-.4-.4-1-.4-1.4 0l-8 8-8-8c-.4-.4-1-.4-1.4 0-.4.4-.4 1 0 1.4l8 8-8 8c-.4.4-.4 1 0 1.4.2.2.4.3.7.3.2 0 .5-.1.7-.3l8-8 8 8c.2.2.4.3.7.3.2 0 .5-.1.7-.3.4-.4.4-1 0-1.4l-8-8 8-8c.4-.5.4-1.1 0-1.4zm0 0"/></g></svg>